<svg xmlns="http://www.w3.org/2000/svg" viewBox="0 0 24 24" fill="currentColor" fill-rule="evenodd" clip-rule="evenodd"><path d="m20.5 13.2-.1-.1c-.3-.2-.5-.5-.5-.9v-.5c0-.4.2-.7.5-.9l.1-.1c1.4-.8 1.9-2.7 1.1-4.1l-.2-.4c-.8-1.4-2.7-1.9-4.1-1.1l-.2.1c-.3.2-.7.2-1 0l-.4-.2c-.3-.2-.5-.5-.5-.9V4c0-1.7-1.3-3-3-3h-.4c-1.7 0-3 1.3-3 3v.2c0 .4-.2.7-.5.9l-.4.2c-.3.2-.7.2-1 0l-.2-.1c-1.4-.8-3.3-.3-4.1 1.1l-.2.4c-.8 1.4-.3 3.3 1 4.1l.2.1c.3.2.5.5.5.9v.5c0 .4-.2.7-.5.9l-.1.1c-1.4.8-1.9 2.7-1.1 4.1l.2.4c.8 1.4 2.7 1.9 4.1 1.1l.2-.1c.3-.2.7-.2 1 0l.4.2c.3.2.5.5.5.9v.1c0 1.7 1.3 3 3 3h.4c1.7 0 3-1.3 3-3v-.2c0-.4.2-.7.5-.9l.4-.2c.3-.2.7-.2 1 0l.1.1c1.4.8 3.3.3 4.1-1.1l.2-.4c.9-1.4.4-3.3-1-4.1zm-.6 3.1-.2.4c-.3.5-.9.6-1.4.3h-.2c-.9-.5-2.1-.5-3 0l-.4.3c-.9.5-1.5 1.5-1.5 2.6v.1c0 .6-.4 1-1 1h-.4c-.6 0-1-.4-1-1v-.2c0-1.1-.6-2.1-1.5-2.6l-.4-.2c-.5-.3-1-.4-1.5-.4s-1 .1-1.5.4l-.2.1c-.5.3-1.1.1-1.4-.4l-.2-.4c-.3-.5-.1-1.1.4-1.4l.1-.1c.9-.5 1.5-1.5 1.5-2.6v-.5c0-1.1-.6-2-1.4-2.5l-.2-.1c-.5-.3-.7-.9-.4-1.4l.2-.4c.3-.5.9-.6 1.4-.3h.2c.9.5 2.1.5 3 0l.4-.2c.9-.5 1.5-1.5 1.5-2.6V4c0-.6.4-1 1-1h.4c.6 0 1 .4 1 1v.2c0 1.1.6 2.1 1.5 2.6l.4.2c.9.5 2.1.5 3 0l.2-.1c.5-.3 1.1-.1 1.4.4l.2.4c.3.5.1 1.1-.4 1.4l-.1.1c-.9.5-1.5 1.5-1.5 2.6v.5c0 1.1.6 2.1 1.5 2.6l.1.1c.5.2.6.8.4 1.3zM12 8c-2.2 0-4 1.8-4 4s1.8 4 4 4 4-1.8 4-4-1.8-4-4-4zm0 6c-1.1 0-2-.9-2-2s.9-2 2-2 2 .9 2 2-.9 2-2 2z" /></svg>