<svg xmlns="http://www.w3.org/2000/svg" viewBox="0 0 24 24" fill="currentColor" fill-rule="evenodd" clip-rule="evenodd"><path d="M10 11c0 .6.4 1 1 1h4c.6 0 1-.4 1-1s-.4-1-1-1h-4c-.6 0-1 .4-1 1zm0 4c0 .6.4 1 1 1h7c.6 0 1-.4 1-1s-.4-1-1-1h-7c-.6 0-1 .4-1 1zm11 3H11c-.6 0-1 .4-1 1s.4 1 1 1h10c.6 0 1-.4 1-1s-.5-1-1-1zM11.7 7.7c.4-.4.4-1 0-1.4l-4-4c-.1-.1-.2-.2-.3-.2C7.3 2 7.1 2 7 2c-.1 0-.3 0-.4.1-.1 0-.2.1-.3.2l-4 4c-.4.4-.4 1 0 1.4.4.4 1 .4 1.4 0L6 5.4V21c0 .6.4 1 1 1s1-.4 1-1V5.4l2.3 2.3c.4.4 1 .4 1.4 0z" /></svg>