<svg xmlns="http://www.w3.org/2000/svg" viewBox="0 0 24 24" fill="currentColor" fill-rule="evenodd" clip-rule="evenodd"><path d="M23.7 16.3c-.4-.4-1-.4-1.4 0L19 19.6l-1.3-1.3c-.4-.4-1-.4-1.4 0-.4.4-.4 1 0 1.4l2 2c.2.2.5.3.7.3.3 0 .5-.1.7-.3l4-4c.4-.4.4-1 0-1.4zm-5.7-.6c.4-.4.3-1-.1-1.4-.7-.6-1.5-1.1-2.3-1.5C17 11.7 18 10 18 8c0-3.3-2.7-6-6-6S6 4.7 6 8c0 1.9.9 3.7 2.4 4.8C5.2 14.2 3 17.3 3 21c0 .6.4 1 1 1s1-.4 1-1c0-3.9 3.1-7 7-7 1.7 0 3.3.6 4.6 1.8.4.3 1 .3 1.4-.1zM12 12c-2.2 0-4-1.8-4-4s1.8-4 4-4 4 1.8 4 4c-.1 2.2-1.8 4-4 4z" /></svg>